<svg width="16" height="17" viewBox="0 0 16 17" fill="none" xmlns="http://www.w3.org/2000/svg">
<path d="M8.00065 13.8333C9.41514 13.8333 10.7717 13.2714 11.7719 12.2712C12.7721 11.271 13.334 9.91447 13.334 8.49998C13.334 7.08549 12.7721 5.72894 11.7719 4.72874C10.7717 3.72855 9.41514 3.16665 8.00065 3.16665C6.58616 3.16665 5.22961 3.72855 4.22941 4.72874C3.22922 5.72894 2.66732 7.08549 2.66732 8.49998C2.66732 9.91447 3.22922 11.271 4.22941 12.2712C5.22961 13.2714 6.58616 13.8333 8.00065 13.8333ZM8.00065 1.83331C8.87613 1.83331 9.74304 2.00575 10.5519 2.34078C11.3607 2.67581 12.0956 3.16688 12.7147 3.78593C13.3338 4.40499 13.8248 5.13992 14.1598 5.94876C14.4949 6.75759 14.6673 7.6245 14.6673 8.49998C14.6673 10.2681 13.9649 11.9638 12.7147 13.214C11.4645 14.4643 9.76876 15.1666 8.00065 15.1666C4.31398 15.1666 1.33398 12.1666 1.33398 8.49998C1.33398 6.73187 2.03636 5.03618 3.28661 3.78593C4.53685 2.53569 6.23254 1.83331 8.00065 1.83331ZM8.33398 5.16665V8.66665L11.334 10.4466L10.834 11.2666L7.33398 9.16665V5.16665H8.33398Z" fill="#19191A"/>
</svg>
