<svg width="20" height="20" viewBox="0 0 20 20" fill="none" xmlns="http://www.w3.org/2000/svg">
<path d="M12.1263 18.0128C12.9772 18.5626 13.9912 18.8022 14.9977 18.6913C16.0042 18.5804 16.942 18.1258 17.6532 17.4039L18.275 16.795C18.5476 16.5158 18.7002 16.1407 18.7002 15.7502C18.7002 15.3597 18.5476 14.9846 18.275 14.7054L15.6359 12.0899C15.3594 11.8178 14.9872 11.6653 14.5996 11.6653C14.2119 11.6653 13.8398 11.8178 13.5633 12.0899V12.0899C13.2845 12.3629 12.91 12.5158 12.5201 12.5158C12.1301 12.5158 11.7557 12.3629 11.4769 12.0899L7.3317 7.93836C7.19341 7.80188 7.08361 7.63923 7.00865 7.45986C6.9337 7.28049 6.89511 7.08799 6.89511 6.89355C6.89511 6.69911 6.9337 6.50661 7.00865 6.32724C7.08361 6.14788 7.19341 5.98523 7.3317 5.84875V5.84875C7.60342 5.57183 7.75568 5.19911 7.75568 4.81086C7.75568 4.4226 7.60342 4.04988 7.3317 3.77297L4.70641 1.14365C4.42759 0.870637 4.05314 0.717773 3.66321 0.717773C3.27327 0.717773 2.89883 0.870637 2.62001 1.14365L2.01205 1.76638C1.29126 2.47871 0.837349 3.41787 0.72663 4.42596C0.61591 5.43405 0.855137 6.44958 1.40409 7.30179C4.26432 11.5235 7.90364 15.1591 12.1263 18.0128V18.0128Z" stroke="white" stroke-linecap="round" stroke-linejoin="round"/>
</svg>
