<svg width="37" height="36" viewBox="0 0 37 36" fill="none" xmlns="http://www.w3.org/2000/svg">
<path d="M22.3277 32.4224C23.8593 33.412 25.6845 33.8433 27.4963 33.6437C29.308 33.4441 30.9959 32.6258 32.2761 31.3264L33.3953 30.2304C33.886 29.7277 34.1607 29.0527 34.1607 28.3497C34.1607 27.6468 33.886 26.9717 33.3953 26.4691L28.645 21.7612C28.1473 21.2714 27.4774 20.9969 26.7796 20.9969C26.0818 20.9969 25.412 21.2714 24.9143 21.7612V21.7612C24.4124 22.2526 23.7384 22.5278 23.0365 22.5278C22.3347 22.5278 21.6606 22.2526 21.1588 21.7612L13.6974 14.2884C13.4485 14.0427 13.2509 13.75 13.116 13.4271C12.9811 13.1043 12.9116 12.7578 12.9116 12.4078C12.9116 12.0578 12.9811 11.7113 13.116 11.3884C13.2509 11.0655 13.4485 10.7728 13.6974 10.5271V10.5271C14.1865 10.0287 14.4606 9.35776 14.4606 8.6589C14.4606 7.96004 14.1865 7.28914 13.6974 6.7907L8.97193 2.05793C8.47005 1.56651 7.79605 1.29135 7.09417 1.29135C6.39228 1.29135 5.71828 1.56651 5.2164 2.05793L4.12207 3.17885C2.82466 4.46104 2.00762 6.15153 1.80832 7.96609C1.60903 9.78065 2.03964 11.6086 3.02774 13.1426C8.17617 20.7417 14.7269 27.2857 22.3277 32.4224V32.4224Z" stroke="white" stroke-width="1.5" stroke-linecap="round" stroke-linejoin="round"/>
</svg>
