<!DOCTYPE svg PUBLIC "-//W3C//DTD SVG 1.1//EN" "http://www.w3.org/Graphics/SVG/1.1/DTD/svg11.dtd">
<!-- Uploaded to: SVG Repo, www.svgrepo.com, Transformed by: SVG Repo Mixer Tools -->
<svg fill="#d428ff" height="800px" width="800px" version="1.1" id="Capa_1" xmlns="http://www.w3.org/2000/svg" xmlns:xlink="http://www.w3.org/1999/xlink" viewBox="-0.4 -0.4 40.79 40.79" xml:space="preserve" stroke="#d428ff">
<g id="SVGRepo_bgCarrier" stroke-width="0">
<rect x="-0.4" y="-0.4" width="40.79" height="40.79" rx="20.395" fill="#000" strokewidth="0"/>
</g>
<g id="SVGRepo_tracerCarrier" stroke-linecap="round" stroke-linejoin="round"/>
<g id="SVGRepo_iconCarrier"> <path id="XMLID_150_" d="M19.994,0C8.952,0,0,8.952,0,19.995c0,11.043,8.952,19.994,19.994,19.994 c11.043,0,19.995-8.952,19.995-19.994C39.989,8.952,31.037,0,19.994,0z M27.744,24.526c0,1.778-1.441,3.219-3.219,3.219h-9.063 c-1.778,0-3.219-1.441-3.219-3.219v-9.063c0-1.778,1.441-3.219,3.219-3.219h9.063c1.778,0,3.219,1.441,3.219,3.219V24.526z"/> </g>
</svg>