<svg width="43" height="42" viewBox="0 0 43 42" fill="none" xmlns="http://www.w3.org/2000/svg">
<path d="M21.5469 0C15.9786 0 10.6334 2.21386 6.69922 6.1507C2.76097 10.0891 0.548002 15.4304 0.546875 21C0.546875 26.5673 2.76172 31.9125 6.69922 35.8493C10.6334 39.7861 15.9786 42 21.5469 42C27.1152 42 32.4603 39.7861 36.3945 35.8493C40.332 31.9125 42.5469 26.5673 42.5469 21C42.5469 15.4327 40.332 10.0875 36.3945 6.1507C32.4603 2.21386 27.1152 0 21.5469 0Z" fill="url(#paint0_linear_195_1736)"/>
<path d="M10.0528 20.7781C16.1757 18.1111 20.2575 16.3528 22.2985 15.5031C28.1325 13.0773 29.3433 12.656 30.1341 12.6417C30.308 12.6389 30.6952 12.6819 30.9478 12.8862C31.1578 13.0584 31.2169 13.2914 31.2464 13.455C31.2727 13.6184 31.3088 13.9908 31.2793 14.2815C30.9643 17.6022 29.596 25.6602 28.9003 29.3795C28.6083 30.9532 28.0275 31.4809 27.4664 31.5324C26.2458 31.6446 25.3205 30.7265 24.1393 29.9525C22.2919 28.7407 21.2485 27.9867 19.4536 26.8044C17.3799 25.4381 18.7252 24.687 19.9064 23.4598C20.2149 23.1386 25.5896 18.2512 25.6913 17.8079C25.7044 17.7524 25.7175 17.5457 25.5928 17.4368C25.4714 17.3275 25.291 17.3649 25.1597 17.3945C24.9727 17.4365 22.0228 19.3881 16.3003 23.2492C15.4636 23.8247 14.7057 24.1053 14.0232 24.0905C13.275 24.0744 11.8313 23.6666 10.7583 23.3181C9.44581 22.8905 8.3991 22.6645 8.49097 21.9383C8.53691 21.5603 9.05863 21.1735 10.0528 20.7781Z" fill="white"/>
<defs>
<linearGradient id="paint0_linear_195_1736" x1="2100.55" y1="0" x2="2100.55" y2="4200" gradientUnits="userSpaceOnUse">
<stop stop-color="#2AABEE"/>
<stop offset="1" stop-color="#229ED9"/>
</linearGradient>
</defs>
</svg>
