<svg width="160" height="160" viewBox="0 0 160 160" fill="none" xmlns="http://www.w3.org/2000/svg">
<path d="M160 70.4765L119.125 69.8004L154.504 49.3312L114.959 59.7057L143.489 30.459L108.215 51.103L127.795 15.2586L99.4049 44.6452L108.576 4.83752L89.1832 40.7868L87.2579 -1.52588e-05L78.2847 39.8427L65.4259 1.07242L67.5496 41.8592L44.6908 7.99651L57.748 46.6968L26.5928 20.2594L49.6149 54.0055L12.4737 36.9401L43.7573 63.226L3.38389 56.8032L40.6184 73.6821L0 78.3797L40.4084 84.6044L2.56709 100.073L43.1622 95.177L10.8985 120.262L48.6581 104.607L24.3757 137.468L56.5111 112.207L41.9953 150.395L66.1144 117.418L62.4621 158.1L76.7795 119.843L84.2357 160L87.7013 119.306L105.729 155.955L98.063 115.844L125.321 146.28L107.118 109.713L141.587 131.674L114.166 101.367L153.291 113.222L118.716 91.4352L159.592 92.3095L120.408 80.6528L160 70.4765Z" fill="#4E6DDC"/>
</svg>
