<svg width="36" height="36" viewBox="0 0 36 36" fill="none" xmlns="http://www.w3.org/2000/svg">
<path d="M30.3002 15.15C30.3002 15.48 30.0302 15.7515 29.7002 15.735C27.937 15.6466 26.2151 15.1703 24.6572 14.34C24.2357 14.115 23.7002 14.4075 23.7002 14.886V23.25C23.7001 25.0044 23.1872 26.7206 22.2246 28.1874C21.262 29.6542 19.8917 30.8077 18.2822 31.506C16.6727 32.2042 14.8942 32.4168 13.1654 32.1176C11.4367 31.8185 9.83307 31.0205 8.55184 29.822C7.2706 28.6234 6.36762 27.0765 5.95395 25.3715C5.54028 23.6666 5.63396 21.8778 6.22347 20.2254C6.81298 18.573 7.87261 17.1288 9.27204 16.0707C10.6715 15.0125 12.3497 14.3865 14.1002 14.2695C14.1784 14.2654 14.2567 14.2774 14.33 14.3048C14.4034 14.3323 14.4703 14.3746 14.5266 14.4291C14.5829 14.4835 14.6274 14.549 14.6573 14.6214C14.6871 14.6939 14.7017 14.7717 14.7002 14.85V19.05C14.7002 19.38 14.4302 19.6455 14.1032 19.6995C13.4262 19.8133 12.7959 20.1184 12.2866 20.5786C11.7772 21.0389 11.4101 21.6351 11.2285 22.2972C11.0469 22.9592 11.0583 23.6593 11.2615 24.315C11.4646 24.9708 11.851 25.5547 12.3751 25.9981C12.8992 26.4415 13.5391 26.7257 14.2195 26.8174C14.8998 26.9091 15.5922 26.8043 16.2149 26.5155C16.8377 26.2266 17.3649 25.7658 17.7343 25.1872C18.1038 24.6086 18.3001 23.9365 18.3002 23.25V4.35C18.3002 4.19087 18.3634 4.03826 18.4759 3.92574C18.5885 3.81321 18.7411 3.75 18.9002 3.75H23.1002C23.2606 3.75409 23.4138 3.81784 23.5297 3.92878C23.6456 4.03973 23.7161 4.18991 23.7272 4.35C23.8675 5.88708 24.542 7.32639 25.6336 8.41765C26.7251 9.50892 28.1646 10.1831 29.7017 10.323C30.0317 10.353 30.3017 10.6185 30.3017 10.95L30.3002 15.15Z" stroke="white" stroke-width="1.5" stroke-linecap="round" stroke-linejoin="round"/>
</svg>
