<svg width="49" height="34" viewBox="0 0 49 34" fill="none" xmlns="http://www.w3.org/2000/svg">
<path d="M47.9302 5.30306C47.6528 4.27806 47.1118 3.34361 46.361 2.59274C45.6101 1.84188 44.6757 1.3008 43.6507 1.0234C39.8983 0 24.7958 0 24.7958 0C24.7958 0 9.69266 0.0309777 5.94019 1.05438C4.91519 1.3318 3.98074 1.8729 3.22991 2.6238C2.47908 3.3747 1.93806 4.30919 1.66073 5.33422C0.525692 12.0016 0.0853921 22.1612 1.69189 28.5619C1.96925 29.5869 2.51028 30.5213 3.26111 31.2722C4.01195 32.0231 4.94638 32.5641 5.97136 32.8415C9.72383 33.8649 24.8266 33.8649 24.8266 33.8649C24.8266 33.8649 39.9292 33.8649 43.6815 32.8415C44.7065 32.5642 45.641 32.0231 46.3919 31.2722C47.1427 30.5214 47.6838 29.5869 47.9612 28.5619C49.1583 21.885 49.5272 11.7317 47.9302 5.30306Z" fill="#FF0000"/>
<path d="M19.9893 24.1892L32.5179 16.9325L19.9893 9.67578V24.1892Z" fill="white"/>
</svg>
