<svg width="43" height="42" viewBox="0 0 43 42" fill="none" xmlns="http://www.w3.org/2000/svg">
<path d="M8.578 33.25C7.77183 33.25 7.09925 32.9805 6.56025 32.4415C6.02125 31.9025 5.75117 31.2293 5.75 30.422V11.578C5.75 10.7718 6.02008 10.0992 6.56025 9.56025C7.10042 9.02125 7.77242 8.75117 8.57625 8.75H34.4237C35.2288 8.75 35.9008 9.02008 36.4398 9.56025C36.9788 10.1004 37.2488 10.773 37.25 11.578V30.4237C37.25 31.2288 36.9799 31.9013 36.4398 32.4415C35.8996 32.9817 35.2276 33.2512 34.4237 33.25H8.578ZM21.5 21.203L35.5 12.0488L34.961 10.5L21.5 19.25L8.039 10.5L7.5 12.0488L21.5 21.203Z" fill="#D428FF"/>
</svg>
