<svg width="34" height="34" viewBox="0 0 34 34" fill="none" xmlns="http://www.w3.org/2000/svg">
<path d="M1.25 15.1667C1.25 11.6887 1.25159 9.15548 1.51189 7.22014C1.76929 5.30636 2.2672 4.09002 3.17877 3.17922C4.09067 2.2681 5.3074 1.77018 7.22092 1.51257C9.15601 1.25205 11.6888 1.25 15.1667 1.25H18.8333C22.3113 1.25 24.8445 1.25159 26.7799 1.51189C28.6936 1.76929 29.91 2.2672 30.8208 3.17877C31.7319 4.09067 32.2298 5.3074 32.4874 7.22092C32.7479 9.15601 32.75 11.6888 32.75 15.1667V18.8333C32.75 22.3113 32.7484 24.8445 32.4881 26.7799C32.2307 28.6936 31.7328 29.91 30.8212 30.8208C29.9093 31.7319 28.6926 32.2298 26.7791 32.4874C24.844 32.7479 22.3112 32.75 18.8333 32.75H15.1667C11.6887 32.75 9.15548 32.7484 7.22014 32.4881C5.30636 32.2307 4.09002 31.7328 3.17922 30.8212C2.2681 29.9093 1.77018 28.6926 1.51257 26.7791C1.25205 24.844 1.25 22.3112 1.25 18.8333V15.1667Z" stroke="white" stroke-width="1.5"/>
<path d="M25.25 11.5C26.7688 11.5 28 10.2688 28 8.75C28 7.23122 26.7688 6 25.25 6C23.7312 6 22.5 7.23122 22.5 8.75C22.5 10.2688 23.7312 11.5 25.25 11.5Z" fill="white"/>
<path d="M16.9997 23.4166C20.5435 23.4166 23.4163 20.5438 23.4163 17C23.4163 13.4562 20.5435 10.5833 16.9997 10.5833C13.4558 10.5833 10.583 13.4562 10.583 17C10.583 20.5438 13.4558 23.4166 16.9997 23.4166Z" stroke="white" stroke-width="1.5"/>
</svg>
