<svg width="39" height="38" viewBox="0 0 39 38" fill="none" xmlns="http://www.w3.org/2000/svg">
<path d="M6 17.4167C6 14.4101 6.00159 12.2304 6.22527 10.5674C6.44604 8.92592 6.8707 7.90064 7.63577 7.13622C8.40117 6.37148 9.42684 5.9468 11.0681 5.72585C12.7309 5.50199 14.9102 5.5 17.9167 5.5H21.0833C24.0899 5.5 26.2696 5.50159 27.9326 5.72527C29.5741 5.94604 30.5994 6.3707 31.3638 7.13577C32.1285 7.90117 32.5532 8.92684 32.7742 10.5681C32.998 12.2309 33 14.4102 33 17.4167V20.5833C33 23.5899 32.9984 25.7696 32.7747 27.4326C32.554 29.0741 32.1293 30.0994 31.3642 30.8638C30.5988 31.6285 29.5732 32.0532 27.9319 32.2742C26.2691 32.498 24.0898 32.5 21.0833 32.5H17.9167C14.9101 32.5 12.7304 32.4984 11.0674 32.2747C9.42592 32.054 8.40064 31.6293 7.63622 30.8642C6.87148 30.0988 6.4468 29.0732 6.22585 27.4319C6.00199 25.7691 6 23.5898 6 20.5833V17.4167ZM28.8347 9.66529L28.3044 10.1956L28.8347 9.66529C28.2487 9.07924 27.4538 8.75 26.625 8.75C25.7962 8.75 25.0013 9.07924 24.4153 9.66529C23.8292 10.2513 23.5 11.0462 23.5 11.875C23.5 12.7038 23.8292 13.4987 24.4153 14.0847C25.0013 14.6708 25.7962 15 26.625 15C27.4538 15 28.2487 14.6708 28.8347 14.0847C29.4208 13.4987 29.75 12.7038 29.75 11.875C29.75 11.0462 29.4208 10.2513 28.8347 9.66529ZM21.9167 20.5833C21.9167 21.2243 21.6621 21.839 21.2088 22.2922C20.7556 22.7454 20.1409 23 19.5 23C18.8591 23 18.2444 22.7454 17.7912 22.2922C17.3379 21.839 17.0833 21.2243 17.0833 20.5833C17.0833 19.9424 17.3379 19.3277 17.7912 18.8745C18.2444 18.4213 18.8591 18.1667 19.5 18.1667C20.1409 18.1667 20.7556 18.4213 21.2088 18.8745C21.6621 19.3277 21.9167 19.9424 21.9167 20.5833ZM24.5087 25.592C25.8371 24.2636 26.5833 22.462 26.5833 20.5833C26.5833 18.7047 25.8371 16.903 24.5087 15.5747C23.1803 14.2463 21.3786 13.5 19.5 13.5C17.6214 13.5 15.8197 14.2463 14.4913 15.5747C13.1629 16.903 12.4167 18.7047 12.4167 20.5833C12.4167 22.462 13.1629 24.2636 14.4913 25.592C15.8197 26.9204 17.6214 27.6667 19.5 27.6667C21.3786 27.6667 23.1803 26.9204 24.5087 25.592Z" fill="#D428FF" stroke="#D428FF" stroke-width="1.5"/>
</svg>
