<svg width="20" height="24" viewBox="0 0 20 24" fill="none" xmlns="http://www.w3.org/2000/svg">
<path d="M17.7727 9.42857C17.7727 7.38262 16.9538 5.42046 15.4961 3.97375C14.0385 2.52704 12.0615 1.71429 10 1.71429C7.93854 1.71429 5.96152 2.52704 4.50385 3.97375C3.04618 5.42046 2.22727 7.38262 2.22727 9.42857C2.22727 12.5931 4.77845 16.7177 10 21.6583C15.2215 16.7177 17.7727 12.5931 17.7727 9.42857ZM10 24C3.66609 18.2863 0.5 13.428 0.5 9.42857C0.5 6.92796 1.50089 4.52977 3.28249 2.76156C5.06408 0.993365 7.48044 0 10 0C12.5196 0 14.9359 0.993365 16.7175 2.76156C18.4991 4.52977 19.5 6.92796 19.5 9.42857C19.5 13.428 16.3339 18.2863 10 24Z" fill="#FBFBFB"/>
<path d="M9.99982 12C10.687 12 11.346 11.7291 11.8319 11.2468C12.3178 10.7646 12.5907 10.1106 12.5907 9.42857C12.5907 8.74658 12.3178 8.09253 11.8319 7.61029C11.346 7.12806 10.687 6.85714 9.99982 6.85714C9.31267 6.85714 8.65366 7.12806 8.16777 7.61029C7.68188 8.09253 7.40891 8.74658 7.40891 9.42857C7.40891 10.1106 7.68188 10.7646 8.16777 11.2468C8.65366 11.7291 9.31267 12 9.99982 12ZM9.99982 13.7143C8.85457 13.7143 7.75622 13.2628 6.94641 12.459C6.13659 11.6553 5.68164 10.5652 5.68164 9.42857C5.68164 8.29192 6.13659 7.20184 6.94641 6.39811C7.75622 5.59438 8.85457 5.14285 9.99982 5.14285C11.1451 5.14285 12.2434 5.59438 13.0532 6.39811C13.8631 7.20184 14.318 8.29192 14.318 9.42857C14.318 10.5652 13.8631 11.6553 13.0532 12.459C12.2434 13.2628 11.1451 13.7143 9.99982 13.7143Z" fill="#FBFBFB"/>
</svg>
