<svg width="52" height="52" viewBox="0 0 52 52" fill="none" xmlns="http://www.w3.org/2000/svg">
<path d="M25.996 6.83718C21.3647 6.71936 17.6475 8.72624 17.6475 8.72624C17.6475 8.72624 12.9269 1.66968 6.26442 6.66655C-0.597144 11.8137 5.86223 19.1912 5.86223 19.1912C5.86223 19.1912 1.18223 24.9275 1.57629 32.2319C1.99879 40.0644 6.15067 49.3025 26.5119 48.9612C46.8732 48.62 50.4075 39.7231 50.3629 32.0044C50.3182 24.57 46.8163 20.2231 46.8163 20.2231C46.8163 20.2231 53.166 13.3047 47.8441 7.86905C42.5222 2.43343 36.461 9.75811 36.461 9.75811C36.461 9.75811 32.6869 7.0078 25.996 6.83718Z" fill="#D428FF"/>
<path d="M25.7848 8.33221C21.9457 8.33221 17.2454 9.1244 10.8998 15.2994C4.55418 21.4744 1.5195 28.7422 3.40856 35.8353C5.29762 42.9285 11.0136 47.7872 26.4551 47.6166C41.8967 47.446 47.0276 42.8797 48.7014 35.035C49.327 32.1019 49.0995 27.0197 46.5279 22.226C43.1561 15.9332 35.5754 8.33221 25.7848 8.33221Z" fill="#F5F5F5"/>
<path d="M21.7465 20.2597C18.59 18.3341 15.3034 20.3735 12.8253 23.7291C10.664 26.6541 8.47028 27.6128 8.28747 30.6678C8.13309 33.2231 10.0425 36.8834 14.0075 36.8834C17.6312 36.8834 18.4315 33.4506 20.1093 31.1269C21.7831 28.7991 26.4672 23.14 21.7465 20.2597ZM29.449 20.9463C27.3934 22.815 27.8078 25.9025 29.3353 27.8485C30.8628 29.7944 31.8093 30.8791 32.4634 32.0816C33.3206 33.6619 36.3675 39.52 41.2709 35.6647C46.2637 31.7363 42.5018 26.9425 41.3481 25.7522C40.8972 25.2891 36.8306 21.0235 36.0465 20.3775C35.035 19.5366 32.3822 18.2772 29.449 20.9463Z" fill="#D428FF"/>
<path d="M38.025 27.235C38.155 29.2622 37.4522 31.0091 35.6606 31.1635C33.9178 31.3097 32.3456 29.7782 32.0369 27.7713C31.7322 25.7644 32.6869 24.111 34.5922 24.0338C36.3431 23.9647 37.8747 24.8707 38.025 27.235ZM19.114 29.7132C18.1553 31.1391 16.0956 31.46 14.5762 30.3225C13.5078 29.5222 13.2681 27.2228 14.235 25.5572C15.2547 23.7982 17.3306 23.5503 18.8784 24.6472C20.1053 25.5207 20.4506 27.7307 19.114 29.7132Z" fill="#451052"/>
<path d="M33.0322 25.7887C32.5975 26.845 32.8778 28.2303 33.6822 28.1897C34.71 28.1409 34.3688 27.2756 34.71 26.8572C35.0513 26.4387 35.6647 25.5612 35.0147 25.0656C34.1981 24.4359 33.3003 25.1387 33.0322 25.7887ZM15.1125 25.5572C14.3935 26.6947 14.5478 27.6859 14.9581 28.0353C15.5878 28.5675 16.3516 27.8241 16.8472 26.91C17.3428 25.9959 17.9725 25.2119 17.2088 24.6431C16.6685 24.2409 15.5675 24.8341 15.1125 25.5572Z" fill="#E0E0E0"/>
<path d="M25.866 33.0688C23.5788 33.0972 20.8731 34.6328 20.8325 35.3966C20.796 36.1603 21.9781 37.0378 22.7785 37.6472C23.3756 38.1022 24.6838 38.8294 24.57 39.2113C24.4563 39.5932 23.5747 40.0197 22.6241 40.1253C21.3647 40.2675 19.7113 39.1544 19.305 38.866C18.8175 38.5247 17.7044 39.0082 18.2203 40.0116C18.7322 41.0069 19.7275 41.661 20.796 41.9291C21.9497 42.2175 22.5875 42.1485 22.5875 42.1485C22.5875 42.1485 23.7006 43.7328 25.7888 43.9035C28.1531 44.0944 29.2947 41.9982 29.2947 41.9982C29.2947 41.9982 30.7288 42.2216 31.6591 41.8844C32.9185 41.4253 33.4019 40.6169 33.7188 39.9791C34.0844 39.2357 33.5847 38.1835 32.3863 38.9513C31.4316 39.5607 30.9766 40.2472 29.0875 40.1619C27.9175 40.1091 27.43 39.3697 27.43 39.065C27.43 38.7603 28.8397 37.9194 29.6806 37.31C30.5256 36.6925 31.1675 36.0141 31.2041 35.4413C31.2406 34.8603 28.8763 33.0322 25.866 33.0688Z" fill="#472849"/>
<path d="M25.9959 40.3812C25.9959 40.3812 25.4434 41.0759 25.2159 41.2303C24.9884 41.3847 24.2246 41.8112 24.2246 41.8112C24.2246 41.8112 24.8096 42.4653 25.5693 42.5547C27.0277 42.7253 27.629 41.8965 27.629 41.8965C27.629 41.8965 27.2959 41.6284 26.914 41.3522C26.5646 41.1003 25.9959 40.3812 25.9959 40.3812Z" fill="#FDA4A5"/>
</svg>
