<svg width="35" height="34" viewBox="0 0 35 34" fill="none" xmlns="http://www.w3.org/2000/svg">
<path d="M19.2713 4.24999C19.2713 3.96819 19.3832 3.69794 19.5825 3.49868C19.7817 3.29943 20.052 3.18749 20.3338 3.18749C23.2456 3.18749 26.0382 4.34422 28.0972 6.40321C30.1562 8.4622 31.3129 11.2548 31.3129 14.1667C31.3129 14.4484 31.201 14.7187 31.0017 14.918C30.8025 15.1172 30.5322 15.2292 30.2504 15.2292C29.9686 15.2292 29.6984 15.1172 29.4991 14.918C29.2999 14.7187 29.1879 14.4484 29.1879 14.1667C29.1879 11.8184 28.2551 9.56629 26.5946 7.90581C24.9341 6.24533 22.682 5.31249 20.3338 5.31249C20.052 5.31249 19.7817 5.20054 19.5825 5.00129C19.3832 4.80203 19.2713 4.53178 19.2713 4.24999ZM19.2713 9.91665C19.2713 9.63486 19.3832 9.36461 19.5825 9.16535C19.7817 8.96609 20.052 8.85415 20.3338 8.85415C21.7427 8.85415 23.094 9.41386 24.0903 10.4101C25.0866 11.4064 25.6463 12.7577 25.6463 14.1667C25.6463 14.4484 25.5343 14.7187 25.3351 14.918C25.1358 15.1172 24.8656 15.2292 24.5838 15.2292C24.302 15.2292 24.0317 15.1172 23.8325 14.918C23.6332 14.7187 23.5213 14.4484 23.5213 14.1667C23.5213 13.3213 23.1854 12.5105 22.5877 11.9128C21.9899 11.315 21.1791 10.9792 20.3338 10.9792C20.052 10.9792 19.7817 10.8672 19.5825 10.668C19.3832 10.4687 19.2713 10.1984 19.2713 9.91665ZM13.2561 4.83932C12.4458 3.69182 11.3238 3.17474 10.1338 3.18749C9.00469 3.19882 7.90535 3.6819 6.98735 4.32507C6.05102 4.98427 5.25262 5.82021 4.6371 6.78582C4.05627 7.70524 3.63694 8.79182 3.6936 9.8529C3.96702 14.9572 6.83861 20.4113 10.8719 24.4474C14.9023 28.4792 20.2842 31.2814 25.7185 30.7459C26.7839 30.6411 27.7911 30.0985 28.6142 29.4072C29.4655 28.6861 30.1611 27.7991 30.6584 26.8005C31.1401 25.8202 31.4277 24.6897 31.269 23.5889C31.1047 22.4414 30.4629 21.4157 29.2829 20.7357C29.0384 20.5939 28.7965 20.4475 28.5575 20.2966C28.345 20.1648 28.1184 20.0217 27.8435 19.8574C27.2822 19.5113 26.6898 19.2182 26.0741 18.9819C25.4409 18.751 24.7169 18.5994 23.9633 18.7028C23.1827 18.8105 22.4574 19.1788 21.8298 19.839C21.3467 20.349 20.6355 20.5077 19.6354 20.2187C18.6182 19.924 17.4735 19.193 16.479 18.2042C15.4845 17.2182 14.7323 16.065 14.4107 15.0237C14.0934 13.9924 14.2336 13.2345 14.7294 12.7117C15.3995 12.0062 15.7565 11.2214 15.8316 10.3912C15.9053 9.58374 15.7041 8.8244 15.4165 8.1614C14.9859 7.17115 14.2549 6.18657 13.6825 5.41874C13.5386 5.22677 13.3969 5.03314 13.2575 4.8379" fill="#D428FF"/>
</svg>
