<svg width="43" height="42" viewBox="0 0 43 42" fill="none" xmlns="http://www.w3.org/2000/svg">
<path d="M21.0938 0C9.49584 0 0.09375 9.40226 0.09375 21C0.09375 32.5986 9.49601 42 21.0938 42C32.6925 42 42.0938 32.5986 42.0938 21C42.0938 9.40308 32.6925 0.00114844 21.0934 0.00114844L21.0938 0ZM30.7241 30.2882C30.3479 30.9051 29.5403 31.1007 28.9235 30.722C23.9929 27.7103 17.7861 27.0281 10.4763 28.6983C10.1378 28.7754 9.78253 28.7149 9.48865 28.53C9.19477 28.3452 8.98633 28.0513 8.90916 27.7128C8.87073 27.5452 8.86572 27.3717 8.89441 27.2023C8.9231 27.0328 8.98492 26.8706 9.07635 26.725C9.16778 26.5794 9.28702 26.4533 9.42724 26.3539C9.56746 26.2544 9.72591 26.1836 9.89353 26.1455C17.8932 24.3178 24.7548 25.1047 30.2903 28.4876C30.9071 28.8663 31.1027 29.6714 30.7241 30.2882ZM33.2944 24.5702C32.8203 25.3404 31.8123 25.5837 31.0425 25.1098C25.3978 21.6402 16.7932 20.6353 10.1167 22.662C9.25073 22.9235 8.33625 22.4355 8.07342 21.5711C7.81256 20.7052 8.30081 19.7923 9.16526 19.5292C16.7917 17.2149 26.2729 18.336 32.7553 22.3194C33.5251 22.7935 33.7684 23.8014 33.2944 24.5702ZM33.5151 18.6158C26.7469 14.5957 15.5803 14.2259 9.11834 16.1874C8.08064 16.5021 6.98323 15.9162 6.66888 14.8785C6.35437 13.8403 6.93959 12.7437 7.9781 12.4282C15.3959 10.1763 27.7275 10.6116 35.5196 15.2375C36.4551 15.7913 36.7609 16.9969 36.2067 17.9289C35.6551 18.8624 34.4463 19.17 33.5161 18.6158H33.5151Z" fill="#1ED760"/>
</svg>
