<svg width="259" height="260" viewBox="0 0 259 260" fill="none" xmlns="http://www.w3.org/2000/svg">
<path d="M260 114.524L193.578 113.426L251.069 80.1632L186.809 97.0217L233.17 49.4958L175.849 83.0424L207.666 24.7953L161.533 72.5485L176.437 7.86099L144.923 66.2786L141.794 0L127.213 64.7443L106.317 1.74271L109.768 68.0213L72.6225 12.9943L93.8404 75.8823L43.2133 32.9215L80.6243 87.759L20.2698 60.0277L71.1056 102.742L5.49882 92.3051L66.005 119.733L0 127.367L65.6637 137.482L4.17152 162.618L70.1386 154.663L17.71 195.426L79.0695 169.987L39.6106 223.385L91.8305 182.337L68.2424 244.392L107.436 190.804L101.501 256.912L124.767 194.744L136.883 260L142.515 193.873L171.81 253.427L159.352 188.247L203.646 237.705L174.066 178.284L230.079 213.971L185.519 164.721L249.097 183.985L192.914 148.582L259.336 150.003L195.664 131.061L260 114.524Z" fill="#4EDC87"/>
</svg>
