<svg width="446" height="446" viewBox="0 0 446 446" fill="none" xmlns="http://www.w3.org/2000/svg">
<path d="M423 199.191L320.812 197.501L409.26 146.328L310.398 172.264L381.722 99.1475L293.537 150.758L342.487 61.1466L271.512 134.613L294.441 35.0938L245.958 124.967L241.145 23L218.712 122.607L186.565 25.6811L191.874 127.648L134.727 42.9913L167.37 139.742L89.4819 73.6484L147.037 158.014L54.1844 115.35L132.393 181.065L31.4597 165.008L124.546 207.205L23 218.949L124.021 234.511L29.4177 273.182L130.905 260.943L50.2462 323.656L144.645 284.518L83.9394 366.669L164.278 303.519L127.988 398.987L188.286 316.545L179.155 418.25L214.949 322.607L233.589 423L242.253 321.266L287.323 412.888L268.158 312.611L336.302 388.7L290.795 297.282L376.967 352.186L308.414 276.417L406.226 306.054L319.791 251.588L421.979 253.774L324.021 224.632L423 199.191Z" stroke="#2D33FB" stroke-width="6" stroke-miterlimit="10"/>
</svg>
