<svg width="36" height="36" viewBox="0 0 36 36" fill="none" xmlns="http://www.w3.org/2000/svg">
<path d="M25.7648 12.9957C28.0798 14.6565 30.9159 15.6336 33.9789 15.6336V9.7184C33.3992 9.71853 32.821 9.65786 32.2539 9.53728V14.1934C29.1911 14.1934 26.3554 13.2162 24.0398 11.5556V23.6268C24.0398 29.6654 19.1619 34.5604 13.1451 34.5604C10.9001 34.5604 8.81346 33.8792 7.08008 32.7111C9.05845 34.7411 11.8174 36.0005 14.8698 36.0005C20.8869 36.0005 25.7651 31.1055 25.7651 25.0667V12.9957H25.7648ZM27.8928 7.02798C26.7097 5.73083 25.9329 4.0545 25.7648 2.20125V1.44043H24.1301C24.5416 3.79591 25.9451 5.80829 27.8928 7.02798ZM10.8857 28.0772C10.2247 27.2074 9.86749 26.1434 9.86909 25.0494C9.86909 22.2875 12.1002 20.0482 14.8528 20.0482C15.3658 20.0481 15.8757 20.1269 16.3646 20.2825V14.2351C15.7932 14.1566 15.2166 14.1232 14.6403 14.1354V18.8424C14.151 18.6868 13.6409 18.6077 13.1278 18.6082C10.3752 18.6082 8.1442 20.8473 8.1442 23.6095C8.1442 25.5626 9.25938 27.2535 10.8857 28.0772Z" fill="#FF004F"/>
<path d="M24.0394 11.5555C26.3551 13.2161 29.1907 14.1933 32.2535 14.1933V9.53716C30.5439 9.1717 29.0304 8.27509 27.8925 7.02798C25.9446 5.80817 24.5412 3.79579 24.1298 1.44043H19.8359V25.0664C19.8262 27.8207 17.5989 30.0509 14.8522 30.0509C13.2336 30.0509 11.7957 29.2766 10.885 28.0772C9.25879 27.2535 8.1436 25.5625 8.1436 23.6096C8.1436 20.8477 10.3746 18.6083 13.1272 18.6083C13.6546 18.6083 14.1629 18.6907 14.6397 18.8426V14.1356C8.72857 14.2581 3.97461 19.1052 3.97461 25.0665C3.97461 28.0424 5.15846 30.7401 7.07985 32.7112C8.81323 33.8792 10.8999 34.5605 13.1449 34.5605C19.1618 34.5605 24.0396 29.6653 24.0396 23.6268V11.5555H24.0394Z" fill="black"/>
<path d="M32.2538 9.5367V8.27773C30.7121 8.28008 29.2007 7.84679 27.8927 7.0274C29.0506 8.2996 30.5753 9.1768 32.2538 9.5367ZM24.13 1.43998C24.0908 1.21487 24.0606 0.988277 24.0397 0.760821V0H18.111V23.6262C18.1016 26.3802 15.8744 28.6104 13.1275 28.6104C12.321 28.6104 11.5596 28.4182 10.8853 28.0769C11.7959 29.2762 13.2339 30.0503 14.8525 30.0503C17.5989 30.0503 19.8266 27.8204 19.8362 25.0661V1.43998H24.13ZM14.6402 14.1351V12.7948C14.1448 12.7269 13.6454 12.6928 13.1453 12.693C7.12787 12.6929 2.25 17.5881 2.25 23.6262C2.25 27.4118 4.16709 30.748 7.08025 32.7105C5.15886 30.7395 3.97501 28.0417 3.97501 25.066C3.97501 19.1048 8.72885 14.2577 14.6402 14.1351Z" fill="#00F2EA"/>
</svg>
